<?xml version="1.0" encoding="UTF-8"?>
<svg version="1.1" xmlns="http://www.w3.org/2000/svg" width="349" height="355">
<path d="M0 0 C0.69771515 0.00182281 1.3954303 0.00364563 2.11428833 0.00552368 C19.68881142 0.08254001 35.66166474 2.74363213 52.3125 8.3125 C52.97314453 8.52745117 53.63378906 8.74240234 54.31445312 8.96386719 C76.28062648 16.2029657 95.36102193 28.9145457 111.87988281 44.92675781 C113.1651861 46.17000618 114.46823077 47.39485104 115.7734375 48.6171875 C143.25122562 74.93801612 160.07945988 115.51582917 161.55078125 153.30859375 C162.50744003 200.10299759 145.91106053 240.29194641 114.3125 274.3125 C113.72339844 274.96734375 113.13429688 275.6221875 112.52734375 276.296875 C92.579649 297.51596128 63.62227225 311.48778568 35.53564453 317.80859375 C33.50486941 318.26889683 31.48411363 318.77284499 29.46484375 319.28125 C-8.65676265 327.65792038 -51.38324111 318.25636795 -84.3671875 298.13671875 C-87.21045911 296.27376089 -89.96240504 294.34346699 -92.6875 292.3125 C-93.82445313 291.48878906 -93.82445313 291.48878906 -94.984375 290.6484375 C-101.63122173 285.67508764 -107.65379626 279.99748161 -113.6875 274.3125 C-114.4609375 273.60480469 -115.234375 272.89710938 -116.03125 272.16796875 C-144.81805538 244.89351365 -159.11711833 204.20228403 -160.8671875 165.3203125 C-161.60695025 123.81140245 -147.38521925 82.45901774 -118.53125 52.25 C-117.58341961 51.27074982 -116.63550201 50.29158404 -115.6875 49.3125 C-115.21054688 48.80976562 -114.73359375 48.30703125 -114.2421875 47.7890625 C-84.52148823 16.47902102 -43.01432169 -0.23477678 0 0 Z " fill="#E2EAF7" transform="translate(173.6875,17.6875)"/>
<path d="M0 0 C8.32609846 6.37876509 13.99713913 12.86692684 18.73046875 22.18359375 C19.06836426 22.84810547 19.40625977 23.51261719 19.75439453 24.19726562 C25.97432902 37.00875601 26.76684244 53.55615971 22.6484375 67.1875 C15.81361925 83.82974 5.76070551 96.10296047 -10.890625 103.69140625 C-16.71077761 106.0463813 -22.2615195 108.02584387 -28.58203125 108.18359375 C-29.80019531 108.23386719 -31.01835937 108.28414063 -32.2734375 108.3359375 C-40.14545518 108.56941768 -47.25258559 108.33278982 -54.58203125 105.18359375 C-55.69320312 104.70792969 -56.804375 104.23226562 -57.94921875 103.7421875 C-65.9812062 100.10483529 -72.42120441 95.53837255 -78.58203125 89.18359375 C-79.154375 88.62027344 -79.72671875 88.05695313 -80.31640625 87.4765625 C-92.05874506 75.03815721 -94.37669444 58.54686098 -93.9296875 42.19140625 C-93.60839494 36.01199446 -92.24620095 30.77002458 -89.58203125 25.18359375 C-89.16953125 24.26707031 -88.75703125 23.35054687 -88.33203125 22.40625 C-81.06991325 7.69633484 -68.4500233 -3.02107134 -53.01953125 -8.31640625 C-35.02926116 -13.70600173 -15.43742272 -10.8599116 0 0 Z " fill="#E0EBF6" transform="translate(208.58203125,177.81640625)"/>
<path d="M0 0 C0.93714844 -0.00257812 1.87429687 -0.00515625 2.83984375 -0.0078125 C7.80437377 0.06260637 11.52949427 0.18039685 15.5 3.5 C16.88308781 6.26617563 16.61210196 8.51018 16.59765625 11.6015625 C16.59282227 13.41914062 16.59282227 13.41914062 16.58789062 15.2734375 C16.57532227 17.17996094 16.57532227 17.17996094 16.5625 19.125 C16.55798828 20.40375 16.55347656 21.6825 16.54882812 23 C16.53701203 26.16671292 16.52053815 29.33333356 16.5 32.5 C17.64214966 32.47643433 17.64214966 32.47643433 18.80737305 32.45239258 C22.2673394 32.38991547 25.7271869 32.35096828 29.1875 32.3125 C30.38568359 32.28736328 31.58386719 32.26222656 32.81835938 32.23632812 C33.97529297 32.22666016 35.13222656 32.21699219 36.32421875 32.20703125 C37.38729248 32.1913208 38.45036621 32.17561035 39.5456543 32.15942383 C42.92477331 32.54896775 44.77990964 33.49204546 47.5 35.5 C49.42807685 39.35615369 48.77189373 44.07049833 48.8125 48.3125 C48.85600586 49.81006836 48.85600586 49.81006836 48.90039062 51.33789062 C48.90876953 52.30533203 48.91714844 53.27277344 48.92578125 54.26953125 C48.94036377 55.15229736 48.95494629 56.03506348 48.9699707 56.94458008 C48.32112293 60.47262663 47.12401401 62.07108497 44.5 64.5 C41.47558594 65.06762695 41.47558594 65.06762695 37.984375 64.98828125 C36.73398438 64.97216797 35.48359375 64.95605469 34.1953125 64.93945312 C32.89335937 64.89755859 31.59140625 64.85566406 30.25 64.8125 C28.93257813 64.78994141 27.61515625 64.76738281 26.2578125 64.74414062 C23.00406596 64.68519594 19.75260329 64.60295053 16.5 64.5 C16.5314209 65.68758911 16.5314209 65.68758911 16.56347656 66.89916992 C16.64675467 70.49515018 16.69869891 74.09092736 16.75 77.6875 C16.78351563 78.93337891 16.81703125 80.17925781 16.8515625 81.46289062 C16.87089844 83.2659668 16.87089844 83.2659668 16.890625 85.10546875 C16.9220459 86.76292114 16.9220459 86.76292114 16.95410156 88.45385742 C16.38406872 92.27767453 15.32959866 93.8869401 12.5 96.5 C9.90625 97.14697266 9.90625 97.14697266 7 97.1640625 C5.4221875 97.17373047 5.4221875 97.17373047 3.8125 97.18359375 C2.719375 97.16425781 1.62625 97.14492187 0.5 97.125 C-1.1396875 97.15400391 -1.1396875 97.15400391 -2.8125 97.18359375 C-3.864375 97.17714844 -4.91625 97.17070312 -6 97.1640625 C-6.9590625 97.15842285 -7.918125 97.1527832 -8.90625 97.14697266 C-11.5 96.5 -11.5 96.5 -13.81933594 94.3581543 C-15.81388925 90.96619677 -15.96476655 89.01643564 -15.890625 85.10546875 C-15.87128906 83.30239258 -15.87128906 83.30239258 -15.8515625 81.46289062 C-15.81804687 80.21701172 -15.78453125 78.97113281 -15.75 77.6875 C-15.73195312 76.42228516 -15.71390625 75.15707031 -15.6953125 73.85351562 C-15.64823916 70.73490665 -15.58249094 67.61784027 -15.5 64.5 C-16.29172607 64.52618408 -17.08345215 64.55236816 -17.89916992 64.5793457 C-21.49507717 64.68344122 -25.09066731 64.748369 -28.6875 64.8125 C-29.93337891 64.85439453 -31.17925781 64.89628906 -32.46289062 64.93945312 C-41.4787527 65.06030919 -41.4787527 65.06030919 -45.83203125 62.671875 C-48.3212961 57.93819103 -48.15096165 53.70400317 -48 48.4375 C-48.00257812 47.44427734 -48.00515625 46.45105469 -48.0078125 45.42773438 C-47.89538307 37.07984956 -47.89538307 37.07984956 -44.5 33.5 C-41.26248322 32.42082774 -38.92248229 32.38574399 -35.51953125 32.40234375 C-34.35615234 32.40556641 -33.19277344 32.40878906 -31.99414062 32.41210938 C-30.77919922 32.42048828 -29.56425781 32.42886719 -28.3125 32.4375 C-27.08595703 32.44201172 -25.85941406 32.44652344 -24.59570312 32.45117188 C-21.56375332 32.46296935 -18.53190094 32.47943079 -15.5 32.5 C-15.52618408 31.70827393 -15.55236816 30.91654785 -15.5793457 30.10083008 C-15.68344122 26.50492283 -15.748369 22.90933269 -15.8125 19.3125 C-15.85439453 18.06662109 -15.89628906 16.82074219 -15.93945312 15.53710938 C-16.06056143 6.50242957 -16.06056143 6.50242957 -13.63671875 2.16796875 C-9.06372018 -0.26375029 -5.10044587 -0.15434637 0 0 Z " fill="#4285F3" transform="translate(173.5,65.5)"/>
<path d="M0 0 C8.32609846 6.37876509 13.99713913 12.86692684 18.73046875 22.18359375 C19.06836426 22.84810547 19.40625977 23.51261719 19.75439453 24.19726562 C25.97432902 37.00875601 26.76684244 53.55615971 22.6484375 67.1875 C15.81361925 83.82974 5.76070551 96.10296047 -10.890625 103.69140625 C-16.71077761 106.0463813 -22.2615195 108.02584387 -28.58203125 108.18359375 C-29.80019531 108.23386719 -31.01835937 108.28414063 -32.2734375 108.3359375 C-40.14545518 108.56941768 -47.25258559 108.33278982 -54.58203125 105.18359375 C-55.69320312 104.70792969 -56.804375 104.23226562 -57.94921875 103.7421875 C-65.9812062 100.10483529 -72.42120441 95.53837255 -78.58203125 89.18359375 C-79.154375 88.62027344 -79.72671875 88.05695313 -80.31640625 87.4765625 C-92.05874506 75.03815721 -94.37669444 58.54686098 -93.9296875 42.19140625 C-93.60839494 36.01199446 -92.24620095 30.77002458 -89.58203125 25.18359375 C-89.16953125 24.26707031 -88.75703125 23.35054687 -88.33203125 22.40625 C-81.06991325 7.69633484 -68.4500233 -3.02107134 -53.01953125 -8.31640625 C-35.02926116 -13.70600173 -15.43742272 -10.8599116 0 0 Z M-76.58203125 15.18359375 C-85.75774412 27.5987912 -89.52652487 41.93651742 -87.58203125 57.18359375 C-84.82768745 71.41096965 -77.04261067 84.3877442 -65.23828125 92.8671875 C-62.74198036 94.45107461 -60.21452339 95.83951166 -57.58203125 97.18359375 C-56.83179688 97.59867187 -56.0815625 98.01375 -55.30859375 98.44140625 C-43.85999454 103.7396253 -27.57899397 103.03168338 -15.76953125 99.12109375 C-0.95807014 92.74789294 9.34245004 82.0997711 15.41796875 67.18359375 C20.03637929 55.18272394 20.25567079 41.12234074 15.16015625 29.25390625 C8.57450383 15.42748416 -0.59780498 4.94773917 -15.1171875 -0.82421875 C-17.26101241 -1.54231295 -19.4076675 -2.19833557 -21.58203125 -2.81640625 C-22.57203125 -3.14640625 -23.56203125 -3.47640625 -24.58203125 -3.81640625 C-45.46973903 -5.06312853 -62.02947953 -0.57983595 -76.58203125 15.18359375 Z " fill="#45A563" transform="translate(208.58203125,177.81640625)"/>
<path d="M0 0 C2 0.56640625 2 0.56640625 3.76959229 2.56768799 C6.58016549 5.08630553 7.95728703 5.0793026 11.68652344 5.11230469 C12.82740417 5.13202332 13.96828491 5.15174194 15.14373779 5.17205811 C16.36989807 5.17328674 17.59605835 5.17451538 18.859375 5.17578125 C20.74864716 5.20058563 20.74864716 5.20058563 22.67608643 5.22589111 C26.01682673 5.26623459 29.35680424 5.28955449 32.69769287 5.30462646 C36.10981743 5.3242113 39.52165915 5.36617957 42.93359375 5.40625 C49.6223269 5.48025672 56.31095313 5.53182717 63 5.56640625 C63 6.22640625 63 6.88640625 63 7.56640625 C63.66 7.56640625 64.32 7.56640625 65 7.56640625 C65 24.39640625 65 41.22640625 65 58.56640625 C55.76 58.56640625 46.52 58.56640625 37 58.56640625 C36.67 59.88640625 36.34 61.20640625 36 62.56640625 C33 64.56640625 33 64.56640625 29.5625 64.44140625 C25.66876807 63.48505104 24.23138722 62.86885933 22 59.56640625 C21.4375 56.62890625 21.4375 56.62890625 22 53.56640625 C24.0625 50.69140625 24.0625 50.69140625 27 48.56640625 C30.5625 48.00390625 30.5625 48.00390625 34 48.56640625 C34.49886719 49.22253906 34.99773437 49.87867188 35.51171875 50.5546875 C39.57440822 53.83927945 44.1830779 53.24446212 49.25 53.31640625 C52.7975 53.39890625 56.345 53.48140625 60 53.56640625 C60 39.37640625 60 25.18640625 60 10.56640625 C41.85 10.56640625 23.7 10.56640625 5 10.56640625 C4.34 11.88640625 3.68 13.20640625 3 14.56640625 C2 15.56640625 2 15.56640625 -1.8125 15.87890625 C-4.87493788 15.82942341 -5.84726301 15.66568529 -8.5 13.94140625 C-10.4674199 10.82632474 -10.5923739 9.19469636 -10 5.56640625 C-7.46343609 0.70465876 -5.14149629 0.01004198 0 0 Z " fill="#4784EA" transform="translate(240,170.43359375)"/>
<path d="M0 0 C3.83364054 0.00748758 5.48287734 0.15018558 8.5625 2.62890625 C10.43625505 6.45788397 10.12962701 8.49974901 9 12.56640625 C7.9375 14.50390625 7.9375 14.50390625 6 15.56640625 C2.30006493 16.11483086 -0.85154824 16.35596684 -4 14.19140625 C-5 12.56640625 -5 12.56640625 -5 10.56640625 C-23.15 10.56640625 -41.3 10.56640625 -60 10.56640625 C-60 24.75640625 -60 38.94640625 -60 53.56640625 C-56.4525 53.48390625 -52.905 53.40140625 -49.25 53.31640625 C-48.13786133 53.30061523 -47.02572266 53.28482422 -45.87988281 53.26855469 C-40.25987361 53.20714699 -40.25987361 53.20714699 -35.51171875 50.5546875 C-35.01285156 49.89855469 -34.51398438 49.24242187 -34 48.56640625 C-29.57136786 47.84172099 -27.71933162 48.07186576 -24 50.62890625 C-22 53.56640625 -22 53.56640625 -21.875 57.12890625 C-23.21759747 61.23128741 -24.17874172 62.57270628 -28 64.56640625 C-31.638685 64.5036703 -33.98461317 64.31975777 -36.9375 62.12890625 C-38 60.56640625 -38 60.56640625 -38 58.56640625 C-46.91 58.56640625 -55.82 58.56640625 -65 58.56640625 C-65 41.73640625 -65 24.90640625 -65 7.56640625 C-64.34 7.56640625 -63.68 7.56640625 -63 7.56640625 C-63 6.90640625 -63 6.24640625 -63 5.56640625 C-61.94217316 5.56093781 -61.94217316 5.56093781 -60.86297607 5.55535889 C-54.21225402 5.51746952 -47.56199532 5.46060686 -40.91161728 5.38250351 C-37.4926539 5.34301785 -34.07394846 5.31083526 -30.65478516 5.29541016 C-26.72264629 5.27734934 -22.79122235 5.22740274 -18.859375 5.17578125 C-17.63321472 5.17455261 -16.40705444 5.17332397 -15.14373779 5.17205811 C-14.00285706 5.15233948 -12.86197632 5.13262085 -11.68652344 5.11230469 C-10.68280701 5.10342224 -9.67909058 5.09453979 -8.6449585 5.08538818 C-4.66658856 4.30477022 -3.64506156 1.03229283 0 0 Z " fill="#4A86EB" transform="translate(108,170.43359375)"/>
<path d="M0 0 C2 0.56640625 2 0.56640625 3.76959229 2.56768799 C6.58016549 5.08630553 7.95728703 5.0793026 11.68652344 5.11230469 C12.82740417 5.13202332 13.96828491 5.15174194 15.14373779 5.17205811 C16.36989807 5.17328674 17.59605835 5.17451538 18.859375 5.17578125 C20.74864716 5.20058563 20.74864716 5.20058563 22.67608643 5.22589111 C26.01682673 5.26623459 29.35680424 5.28955449 32.69769287 5.30462646 C36.10981743 5.3242113 39.52165915 5.36617957 42.93359375 5.40625 C49.6223269 5.48025672 56.31095313 5.53182717 63 5.56640625 C63 6.22640625 63 6.88640625 63 7.56640625 C63.66 7.56640625 64.32 7.56640625 65 7.56640625 C65 24.39640625 65 41.22640625 65 58.56640625 C64.67 58.56640625 64.34 58.56640625 64 58.56640625 C64 42.06640625 64 25.56640625 64 8.56640625 C63.34 8.56640625 62.68 8.56640625 62 8.56640625 C62 7.90640625 62 7.24640625 62 6.56640625 C45.5 6.89640625 29 7.22640625 12 7.56640625 C12 8.22640625 12 8.88640625 12 9.56640625 C27.84 9.56640625 43.68 9.56640625 60 9.56640625 C60 9.89640625 60 10.22640625 60 10.56640625 C41.85 10.56640625 23.7 10.56640625 5 10.56640625 C4.34 11.88640625 3.68 13.20640625 3 14.56640625 C2 15.56640625 2 15.56640625 -1.8125 15.87890625 C-4.87493788 15.82942341 -5.84726301 15.66568529 -8.5 13.94140625 C-10.4674199 10.82632474 -10.5923739 9.19469636 -10 5.56640625 C-7.46343609 0.70465876 -5.14149629 0.01004198 0 0 Z " fill="#5F90DD" transform="translate(240,170.43359375)"/>
<path d="M0 0 C3.83364054 0.00748758 5.48287734 0.15018558 8.5625 2.62890625 C10.43625505 6.45788397 10.12962701 8.49974901 9 12.56640625 C7.9375 14.50390625 7.9375 14.50390625 6 15.56640625 C2.30006493 16.11483086 -0.85154824 16.35596684 -4 14.19140625 C-5 12.56640625 -5 12.56640625 -5 10.56640625 C-23.15 10.56640625 -41.3 10.56640625 -60 10.56640625 C-60 10.23640625 -60 9.90640625 -60 9.56640625 C-32.775 9.07140625 -32.775 9.07140625 -5 8.56640625 C-5 7.90640625 -5 7.24640625 -5 6.56640625 C-23.81 6.56640625 -42.62 6.56640625 -62 6.56640625 C-62 7.22640625 -62 7.88640625 -62 8.56640625 C-62.66 8.56640625 -63.32 8.56640625 -64 8.56640625 C-64 25.06640625 -64 41.56640625 -64 58.56640625 C-64.33 58.56640625 -64.66 58.56640625 -65 58.56640625 C-65 41.73640625 -65 24.90640625 -65 7.56640625 C-64.34 7.56640625 -63.68 7.56640625 -63 7.56640625 C-63 6.90640625 -63 6.24640625 -63 5.56640625 C-61.94217316 5.56093781 -61.94217316 5.56093781 -60.86297607 5.55535889 C-54.21225402 5.51746952 -47.56199532 5.46060686 -40.91161728 5.38250351 C-37.4926539 5.34301785 -34.07394846 5.31083526 -30.65478516 5.29541016 C-26.72264629 5.27734934 -22.79122235 5.22740274 -18.859375 5.17578125 C-17.63321472 5.17455261 -16.40705444 5.17332397 -15.14373779 5.17205811 C-14.00285706 5.15233948 -12.86197632 5.13262085 -11.68652344 5.11230469 C-10.68280701 5.10342224 -9.67909058 5.09453979 -8.6449585 5.08538818 C-4.66658856 4.30477022 -3.64506156 1.03229283 0 0 Z " fill="#6291DA" transform="translate(108,170.43359375)"/>
<path d="M0 0 C18.81 0 37.62 0 57 0 C57 0.66 57 1.32 57 2 C53.99633486 3.00122171 52.02260407 3.12112011 48.88598633 3.11352539 C47.84513382 3.11344986 46.80428131 3.11337433 45.73188782 3.11329651 C44.60993515 3.10813522 43.48798248 3.10297394 42.33203125 3.09765625 C40.60710701 3.09553383 40.60710701 3.09553383 38.84733582 3.09336853 C35.16903092 3.08776429 31.49078655 3.07521104 27.8125 3.0625 C25.32096442 3.05748555 22.82942789 3.05292255 20.33789062 3.04882812 C14.22521825 3.03864373 8.11267701 3.01906901 2 3 C2.33 17.85 2.66 32.7 3 48 C8.28 48.33 13.56 48.66 19 49 C19 49.33 19 49.66 19 50 C15.85418577 50.02888514 12.70840531 50.04675923 9.5625 50.0625 C8.66466797 50.07087891 7.76683594 50.07925781 6.84179688 50.08789062 C5.56079102 50.09272461 5.56079102 50.09272461 4.25390625 50.09765625 C3.46314697 50.10289307 2.6723877 50.10812988 1.85766602 50.11352539 C0 50 0 50 -1 49 C-1.0981263 47.57319499 -1.12798268 46.14160036 -1.12939453 44.71142578 C-1.13254669 43.8002298 -1.13569885 42.88903381 -1.13894653 41.95022583 C-1.1369223 40.95860443 -1.13489807 39.96698303 -1.1328125 38.9453125 C-1.13376923 37.9328244 -1.13472595 36.9203363 -1.13571167 35.87716675 C-1.13639374 33.73012225 -1.13453762 31.58307572 -1.13037109 29.43603516 C-1.12503425 26.14611167 -1.1303095 22.8563254 -1.13671875 19.56640625 C-1.13605776 17.4843747 -1.13477615 15.40234323 -1.1328125 13.3203125 C-1.13483673 12.33273956 -1.13686096 11.34516663 -1.13894653 10.32766724 C-1.13579437 9.41016693 -1.13264221 8.49266663 -1.12939453 7.54736328 C-1.12859894 6.73985626 -1.12780334 5.93234924 -1.12698364 5.10037231 C-1 3 -1 3 0 0 Z " fill="#4584EE" transform="translate(46,177)"/>
<path d="M0 0 C0.90363281 0.34933594 1.80726563 0.69867188 2.73828125 1.05859375 C3.91777344 1.51363281 5.09726563 1.96867188 6.3125 2.4375 C7.48425781 2.88996094 8.65601563 3.34242188 9.86328125 3.80859375 C20.47701032 7.83996033 30.00260703 6.69708413 40.2578125 2.09375 C43 1 43 1 47 1 C47 2.32 47 3.64 47 5 C45.08588443 5.98414433 43.1686033 6.96213349 41.25 7.9375 C40.18265625 8.48277344 39.1153125 9.02804687 38.015625 9.58984375 C29.90786417 13.38116714 19.7700204 13.26971766 11.19921875 10.98828125 C6.32861983 9.15146422 2.05939891 7.29584531 -2 4 C-1.34 2.68 -0.68 1.36 0 0 Z " fill="#3BA559" transform="translate(151,249)"/>
<path d="M0 0 C3.4375 0.5625 3.4375 0.5625 4.94921875 2.55078125 C9.01323077 5.83644246 13.61473197 5.24168725 18.6875 5.3125 C19.71875 5.34214844 20.75 5.37179688 21.8125 5.40234375 C24.35424495 5.47294778 26.89507783 5.52569009 29.4375 5.5625 C29.4375 5.8925 29.4375 6.2225 29.4375 6.5625 C24.8175 6.8925 20.1975 7.2225 15.4375 7.5625 C16.0975 8.2225 16.7575 8.8825 17.4375 9.5625 C13.8075 9.8925 10.1775 10.2225 6.4375 10.5625 C6.1075 11.8825 5.7775 13.2025 5.4375 14.5625 C2.4375 16.5625 2.4375 16.5625 -1 16.4375 C-4.89373193 15.48114479 -6.33111278 14.86495308 -8.5625 11.5625 C-9.125 8.625 -9.125 8.625 -8.5625 5.5625 C-5.92388121 1.88442532 -4.50182231 0.71081405 0 0 Z " fill="#6491E1" transform="translate(270.5625,218.4375)"/>
<path d="M0 0 C0.97040726 0.00888245 1.94081451 0.01776489 2.94062805 0.0269165 C4.5920002 0.02736969 4.5920002 0.02736969 6.2767334 0.02783203 C7.4643074 0.04847717 8.65188141 0.06912231 9.8754425 0.09039307 C11.70024895 0.09888275 11.70024895 0.09888275 13.56192017 0.10754395 C17.4545852 0.12996772 21.34633605 0.18017793 25.23872375 0.23101807 C27.87477819 0.25107518 30.51084702 0.26932731 33.14692688 0.28570557 C39.61566296 0.32645351 46.08241791 0.40473998 52.55122375 0.48101807 C52.55122375 14.67101807 52.55122375 28.86101807 52.55122375 43.48101807 C49.00372375 43.56351807 45.45622375 43.64601807 41.80122375 43.73101807 C40.13301575 43.78564209 40.13301575 43.78564209 38.43110657 43.84136963 C31.08473406 43.9244552 31.08473406 43.9244552 28.14497375 41.48101807 C27.3560675 40.49101807 27.3560675 40.49101807 26.55122375 39.48101807 C24.19597715 39.00179448 24.19597715 39.00179448 21.80122375 39.23101807 C20.60239563 39.28515869 20.60239563 39.28515869 19.37934875 39.34039307 C18.7760675 39.38679932 18.17278625 39.43320557 17.55122375 39.48101807 C17.88122375 38.49101807 18.21122375 37.50101807 18.55122375 36.48101807 C22.49253846 35.32746254 24.80590214 35.29038809 28.36372375 37.23101807 C31.55122375 39.48101807 31.55122375 39.48101807 32.55122375 42.48101807 C38.82122375 42.48101807 45.09122375 42.48101807 51.55122375 42.48101807 C51.55122375 29.28101807 51.55122375 16.08101807 51.55122375 2.48101807 C34.39122375 2.48101807 17.23122375 2.48101807 -0.44877625 2.48101807 C-0.77877625 3.47101807 -1.10877625 4.46101807 -1.44877625 5.48101807 C-4.55984214 7.63162066 -6.83006252 7.62936383 -10.51127625 7.16851807 C-11.36850281 7.06926025 -12.22572937 6.97000244 -13.1089325 6.86773682 C-15.44877625 6.48101807 -15.44877625 6.48101807 -18.44877625 5.48101807 C-18.11877625 4.16101807 -17.78877625 2.84101807 -17.44877625 1.48101807 C-16.95377625 1.97601807 -16.45877625 2.47101807 -15.94877625 2.98101807 C-12.19228788 5.23491108 -9.80298243 4.96481875 -5.44877625 4.48101807 C-4.98372177 3.82136047 -4.5186673 3.16170288 -4.03952026 2.48205566 C-2.44877625 0.48101807 -2.44877625 0.48101807 0 0 Z " fill="#D4EBFE" transform="translate(247.4487762451172,180.51898193359375)"/>
<path d="M0 0 C18.15 0 36.3 0 55 0 C55.495 1.98 55.495 1.98 56 4 C58.64 4.33 61.28 4.66 64 5 C64 5.33 64 5.66 64 6 C58.04296875 6.390625 58.04296875 6.390625 56 6 C55.35251045 5.01480377 55.35251045 5.01480377 54.69194031 4.00970459 C53.17067453 1.79004241 53.17067453 1.79004241 50.66511536 1.48101807 C49.74800278 1.47213562 48.8308902 1.46325317 47.88598633 1.45410156 C46.32470757 1.42452362 46.32470757 1.42452362 44.73188782 1.39434814 C43.60993515 1.39311951 42.48798248 1.39189087 41.33203125 1.390625 C40.18208176 1.37408875 39.03213226 1.35755249 37.84733582 1.34051514 C34.16900377 1.2918718 30.49108562 1.27062713 26.8125 1.25 C24.32094253 1.22185412 21.82940449 1.19192866 19.33789062 1.16015625 C13.22506696 1.08275295 7.11356898 1.04238176 1 1 C1 14.53 1 28.06 1 42 C18.46385876 43.20510597 18.46385876 43.20510597 23 38 C23.66 38 24.32 38 25 38 C25 37.34 25 36.68 25 36 C28.3 36 31.6 36 35 36 C35.33 36.99 35.66 37.98 36 39 C36.99 39 37.98 39 39 39 C39 41.97 39 44.94 39 48 C38.67 48 38.34 48 38 48 C37.731875 47.071875 37.46375 46.14375 37.1875 45.1875 C35.88285902 41.42012558 35.88285902 41.42012558 33 39 C29.54230809 38.41657647 29.54230809 38.41657647 26 39 C25.49855469 39.66386719 24.99710938 40.32773438 24.48046875 41.01171875 C20.39615638 44.28560063 15.80313347 43.41546047 10.75 43.25 C5.42875 43.12625 5.42875 43.12625 0 43 C0 28.81 0 14.62 0 0 Z " fill="#D2EBFE" transform="translate(48,181)"/>
<path d="M0 0 C7.24942792 -0.60411899 7.24942792 -0.60411899 10.5625 2.0625 C12.43625505 5.89147772 12.12962701 7.93334276 11 12 C9.9375 13.9375 9.9375 13.9375 8 15 C4.34365827 15.54196297 1.18889027 15.68451258 -2.0625 13.8125 C-3.43031133 11.16806476 -2.83772622 9.83538107 -2 7 C-1.649375 5.741875 -1.29875 4.48375 -0.9375 3.1875 C-0.4734375 1.6096875 -0.4734375 1.6096875 0 0 Z " fill="#4286F4" transform="translate(106,171)"/>
<path d="M0 0 C1.13142779 0.88770125 2.25905828 1.78040771 3.375 2.6875 C2.385 3.0175 1.395 3.3475 0.375 3.6875 C-0.285 3.3575 -0.945 3.0275 -1.625 2.6875 C-1.625 2.0275 -1.625 1.3675 -1.625 0.6875 C-2.73875 0.419375 -3.8525 0.15125 -5 -0.125 C-8.625 -1.3125 -8.625 -1.3125 -10.625 -4.3125 C-13.51441686 -5.56200467 -13.51441686 -5.56200467 -16.875 -6.5 C-17.99390625 -6.84417969 -19.1128125 -7.18835938 -20.265625 -7.54296875 C-23.51755311 -8.28788717 -26.30389622 -8.45842729 -29.625 -8.3125 C-26.985 -7.3225 -24.345 -6.3325 -21.625 -5.3125 C-21.625 -4.6525 -21.625 -3.9925 -21.625 -3.3125 C-22.33164795 -3.47548584 -23.0382959 -3.63847168 -23.76635742 -3.80639648 C-26.70144539 -4.32603414 -29.38488693 -4.42608349 -32.36328125 -4.41015625 C-33.96333008 -4.40532227 -33.96333008 -4.40532227 -35.59570312 -4.40039062 C-36.69849609 -4.39201172 -37.80128906 -4.38363281 -38.9375 -4.375 C-40.62069336 -4.36823242 -40.62069336 -4.36823242 -42.33789062 -4.36132812 C-45.1003151 -4.34957313 -47.86262998 -4.33314077 -50.625 -4.3125 C-50.955 -5.3025 -51.285 -6.2925 -51.625 -7.3125 C-48.01506828 -8.44730527 -44.6407673 -8.41265767 -40.875 -8.375 C-39.11929688 -8.36146484 -39.11929688 -8.36146484 -37.328125 -8.34765625 C-36.43609375 -8.33605469 -35.5440625 -8.32445312 -34.625 -8.3125 C-34.625 -8.9725 -34.625 -9.6325 -34.625 -10.3125 C-40.565 -9.9825 -46.505 -9.6525 -52.625 -9.3125 C-37.89298073 -19.13384618 -12.6574095 -9.37177532 0 0 Z " fill="#4DA769" transform="translate(210.625,179.3125)"/>
<path d="M0 0 C1.8125 1.0625 1.8125 1.0625 3 3 C3.4375 6.5 3.4375 6.5 3 10 C0.89172636 12.42061048 -0.40345478 12.9127007 -3.5625 13.375 C-6 13 -6 13 -7.8125 11.9375 C-9.69021039 8.87386726 -9.43729494 6.49835955 -9 3 C-6.34915657 -0.04356098 -3.94419493 -0.60679922 0 0 Z " fill="#50A46E" transform="translate(201,204)"/>
<path d="M0 0 C2.3125 1.0625 2.3125 1.0625 4 3 C4.5 6.5 4.5 6.5 4 10 C1.89172636 12.42061048 0.59654522 12.9127007 -2.5625 13.375 C-5 13 -5 13 -6.8125 11.9375 C-8.67036623 8.90624457 -8.37133265 6.46577141 -8 3 C-5.94421302 -0.35417875 -3.76306035 -0.55069176 0 0 Z " fill="#48A368" transform="translate(152,204)"/>
<path d="M0 0 C2 2 2 2 2 6 C2.66 6 3.32 6 4 6 C4 6.66 4 7.32 4 8 C3.01 8.495 3.01 8.495 2 9 C0.86649466 11.01669827 0.86649466 11.01669827 0 13 C-2.31 12.67 -4.62 12.34 -7 12 C-7 11.34 -7 10.68 -7 10 C-7.66 10 -8.32 10 -9 10 C-9.36103152 3.6217765 -9.36103152 3.6217765 -7.875 1.0625 C-5.15050101 -0.48138276 -3.07108055 -0.3267107 0 0 Z " fill="#4185F5" transform="translate(241,172)"/>
<path d="M0 0 C0 0.66 0 1.32 0 2 C1.32 2.66 2.64 3.32 4 4 C-9.5112442 8.97288849 -25.39866637 10.49284627 -39 5 C-35.44710787 3.78743777 -32.83484601 4.22114064 -29.1875 4.9375 C-21.84185075 6.25526496 -15.34255698 6.03053431 -8 5 C-8 4.34 -8 3.68 -8 3 C-13.94 2.67 -19.88 2.34 -26 2 C-26 1.67 -26 1.34 -26 1 C-23.16681141 0.83049299 -20.33349012 0.66432466 -17.5 0.5 C-16.70851562 0.45230469 -15.91703125 0.40460938 -15.1015625 0.35546875 C-10.057819 0.06607363 -5.05202732 -0.04634887 0 0 Z " fill="#4FAA6B" transform="translate(193,278)"/>
<path d="M0 0 C1.93359375 -0.328125 1.93359375 -0.328125 4.4375 -0.25 C5.40171875 -0.22421875 6.3659375 -0.1984375 7.359375 -0.171875 C8.56078125 -0.11515625 9.7621875 -0.0584375 11 0 C11.78439453 0.03673828 12.56878906 0.07347656 13.37695312 0.11132812 C18.91990004 0.37607843 24.46007354 0.67851204 30 1 C29.67 1.99 29.34 2.98 29 4 C20.93802257 6.64099261 13.76785445 6.16659532 5.5625 4.5 C4.83095703 4.35691406 4.09941406 4.21382813 3.34570312 4.06640625 C1.56264514 3.71678704 -0.21885203 3.35922312 -2 3 C-1.34 2.01 -0.68 1.02 0 0 Z " fill="#36A654" transform="translate(156,279)"/>
<path d="M0 0 C2.10588701 0.78707902 4.20965616 1.57982626 6.3125 2.375 C8.07013672 3.03628906 8.07013672 3.03628906 9.86328125 3.7109375 C13 5 13 5 16 7 C13.69 6.67 11.38 6.34 9 6 C9.33 6.66 9.66 7.32 10 8 C19.25062217 10.19459205 29.66734045 9.52369952 39 8 C32.68844715 13.18448984 24.93129729 12.65802536 17.10400391 12.23974609 C10.14023934 11.44624217 3.4112593 8.39342719 -2 4 C-1.34 2.68 -0.68 1.36 0 0 Z " fill="#4FA66C" transform="translate(151,249)"/>
<path d="M0 0 C0.721875 0.268125 1.44375 0.53625 2.1875 0.8125 C3.76062496 4.48312491 4.33190048 6.25552674 3.3125 10.1875 C2.94125 11.05375 2.57 11.92 2.1875 12.8125 C-1.1875 12.9375 -1.1875 12.9375 -4.8125 12.8125 C-7.48408839 10.14091161 -7.7388784 8.56720151 -7.8125 4.8125 C-4.13185047 -0.2754567 -4.13185047 -0.2754567 0 0 Z " fill="#4186F4" transform="translate(271.8125,220.1875)"/>
<path d="M0 0 C2.58709084 3.88063626 4.51181949 8.00411177 6.5625 12.1875 C7.98147784 15.09706984 7.98147784 15.09706984 10 18 C9.34 18.33 8.68 18.66 8 19 C7.34 18.67 6.68 18.34 6 18 C5.34 19.32 4.68 20.64 4 22 C-6 8.2 -6 8.2 -6 1 C-5.34 1 -4.68 1 -4 1 C-3.34 2.98 -2.68 4.96 -2 7 C-1.34 6.67 -0.68 6.34 0 6 C0 4.02 0 2.04 0 0 Z " fill="#44A761" transform="translate(123,242)"/>
<path d="M0 0 C1.16337891 0.00322266 2.32675781 0.00644531 3.52539062 0.00976562 C4.74033203 0.01814453 5.95527344 0.02652344 7.20703125 0.03515625 C8.43357422 0.03966797 9.66011719 0.04417969 10.92382812 0.04882812 C13.95577793 0.0606256 16.98763031 0.07708704 20.01953125 0.09765625 C19.68953125 1.08765625 19.35953125 2.07765625 19.01953125 3.09765625 C18.01369995 3.08980103 18.01369995 3.08980103 16.98754883 3.08178711 C13.93571925 3.0609402 10.88390469 3.04797156 7.83203125 3.03515625 C6.77693359 3.02677734 5.72183594 3.01839844 4.63476562 3.00976562 C3.61318359 3.00654297 2.59160156 3.00332031 1.5390625 3 C0.60167236 2.99476318 -0.33571777 2.98952637 -1.30151367 2.98413086 C-3.96096352 3.09682968 -6.38967448 3.50388976 -8.98046875 4.09765625 C-9.98052179 7.09781537 -10.0962246 9.07189381 -10.078125 12.203125 C-10.07490234 13.18603516 -10.07167969 14.16894531 -10.06835938 15.18164062 C-10.05998047 16.20580078 -10.05160156 17.22996094 -10.04296875 18.28515625 C-10.03845703 19.32091797 -10.03394531 20.35667969 -10.02929688 21.42382812 C-10.01750885 23.98182891 -10.0010539 26.53971358 -9.98046875 29.09765625 C-12.95972591 26.11839909 -12.27289259 23.37163472 -12.30273438 19.296875 C-12.29951172 18.28238281 -12.29628906 17.26789063 -12.29296875 16.22265625 C-12.30908203 15.21589844 -12.32519531 14.20914063 -12.34179688 13.171875 C-12.34244141 12.20121094 -12.34308594 11.23054688 -12.34375 10.23046875 C-12.34673096 9.34246582 -12.34971191 8.45446289 -12.3527832 7.53955078 C-11.90313425 4.59044334 -11.02953201 3.24137487 -8.98046875 1.09765625 C-5.74295197 0.01848399 -3.40295104 -0.01659976 0 0 Z " fill="#598CE4" transform="translate(137.98046875,97.90234375)"/>
<path d="M0 0 C-0.3238405 3.56224549 -1.08946767 5.11606617 -3.3125 8 C-7.12852186 12.98079597 -8.39277658 19.02903031 -10 25 C-10.33 25 -10.66 25 -11 25 C-11.30285577 16.78924367 -11.22157669 8.82821567 -6 2 C-3.80010103 0.60006429 -2.60233337 0 0 0 Z " fill="#32A853" transform="translate(131,190)"/>
<path d="M0 0 C4.43728151 -0.11586755 8.87417591 -0.18714058 13.3125 -0.25 C14.57513672 -0.28351563 15.83777344 -0.31703125 17.13867188 -0.3515625 C18.95141602 -0.37089844 18.95141602 -0.37089844 20.80078125 -0.390625 C21.91622314 -0.41157227 23.03166504 -0.43251953 24.1809082 -0.45410156 C27 0 27 0 28.68041992 1.95800781 C29.11588135 2.63186523 29.55134277 3.30572266 30 4 C33.31809464 5.26006315 33.31809464 5.26006315 37 5 C39.4016199 3.57371045 40.99913746 2.00086254 43 0 C43 4 43 4 41.5 5.75 C38.01561952 7.49219024 34.77800489 7.7116883 31 7 C28.375 5.0625 28.375 5.0625 26 3 C20.70015116 1.62596512 15.52639089 2.08364382 10.125 2.4375 C9.24585938 2.48970703 8.36671875 2.54191406 7.4609375 2.59570312 C5.30692501 2.72447561 3.15340341 2.86141463 1 3 C0.67 2.01 0.34 1.02 0 0 Z " fill="#D3EBFE" transform="translate(43,229)"/>
<path d="M0 0 C3.3125 0.4375 3.3125 0.4375 6.3125 2.4375 C3.61061694 3.78844153 1.32387527 3.32246034 -1.6171875 3.08203125 C-3.89316416 3.25121054 -3.89316416 3.25121054 -5.46148682 5.43133545 C-8.28235454 7.97360469 -9.62458623 7.92478242 -13.37402344 7.89160156 C-14.51490417 7.89129944 -15.65578491 7.89099731 -16.83123779 7.89068604 C-18.05739807 7.87004089 -19.28355835 7.84939575 -20.546875 7.828125 C-21.80638977 7.82246521 -23.06590454 7.81680542 -24.36358643 7.81097412 C-27.70459024 7.79238047 -31.04449467 7.75647328 -34.38519287 7.7121582 C-37.79706339 7.67116502 -41.20904769 7.65295459 -44.62109375 7.6328125 C-51.3101992 7.58869664 -57.99878614 7.5217465 -64.6875 7.4375 C-64.6875 7.1075 -64.6875 6.7775 -64.6875 6.4375 C-64.01177948 6.43607498 -63.33605896 6.43464996 -62.63986206 6.43318176 C-55.59901475 6.41347659 -48.55903342 6.35918433 -41.51855469 6.28491211 C-38.89199031 6.26173273 -36.26533299 6.24733658 -33.63867188 6.24194336 C-29.86008792 6.2326541 -26.08296577 6.1916589 -22.3046875 6.14453125 C-21.13259735 6.1484639 -19.9605072 6.15239655 -18.75289917 6.15644836 C-10.36604934 6.006775 -7.0833666 0.84039943 0 0 Z " fill="#D1E9FE" transform="translate(109.6875,168.5625)"/>
<path d="M0 0 C3 2 3 2 4 5.6875 C4.38154776 9.94681888 3.20440231 12.44291336 0.5390625 15.71875 C-1 17 -1 17 -4.1875 17.5 C-7 17 -7 17 -9 16 C-8.67 15.34 -8.34 14.68 -8 14 C-5.67284 13.62599214 -3.33882138 13.29235267 -1 13 C0.39287806 11.82963695 0.39287806 11.82963695 0.1875 8.5625 C0.39564928 4.94967279 0.39564928 4.94967279 -2 3 C-5.73296326 2.61713197 -6.77626323 2.85084215 -10 5 C-10.72965366 7.56282742 -10.72965366 7.56282742 -11 10 C-11.33 10 -11.66 10 -12 10 C-12.3125 7.25 -12.3125 7.25 -12 4 C-8.38106686 -0.16725635 -5.36981901 -0.59664656 0 0 Z " fill="#CDECE0" transform="translate(203,202)"/>
<path d="M0 0 C7.24942792 -0.60411899 7.24942792 -0.60411899 10.5625 2.0625 C12.43625505 5.89147772 12.12962701 7.93334276 11 12 C9.9375 13.9375 9.9375 13.9375 8 15 C5.28142577 15.23639776 2.74012331 15.13476016 0 15 C0 14.67 0 14.34 0 14 C1.98 14 3.96 14 6 14 C6 13.34 6 12.68 6 12 C6.66 12 7.32 12 8 12 C8 11.34 8 10.68 8 10 C8.66 10 9.32 10 10 10 C9.67 8.68 9.34 7.36 9 6 C8.01 7.485 8.01 7.485 7 9 C6.01 8.34 5.02 7.68 4 7 C4 5.68 4 4.36 4 3 C2.35 3 0.7 3 -1 3 C-0.67 2.01 -0.34 1.02 0 0 Z " fill="#4B86E7" transform="translate(106,171)"/>
<path d="M0 0 C9.24 0 18.48 0 28 0 C28 0.33 28 0.66 28 1 C19.42 1.33 10.84 1.66 2 2 C2 2.99 2 3.98 2 5 C1.01 5 0.02 5 -1 5 C-1.33 6.32 -1.66 7.64 -2 9 C-3.65 9.33 -5.3 9.66 -7 10 C-7 9.34 -7 8.68 -7 8 C-8.32 7.67 -9.64 7.34 -11 7 C-9 5 -9 5 -5.5 4.625 C-4.345 4.41875 -3.19 4.2125 -2 4 C-1.34 2.68 -0.68 1.36 0 0 Z " fill="#D4EBFE" transform="translate(277,229)"/>
<path d="M0 0 C1.89492187 0.01353516 1.89492187 0.01353516 3.828125 0.02734375 C4.79234375 0.03894531 5.7565625 0.05054688 6.75 0.0625 C6.75 0.7225 6.75 1.3825 6.75 2.0625 C2.81941063 3.37269646 -0.64697169 2.99012678 -4.75390625 2.8046875 C-5.57761719 2.88976562 -6.40132812 2.97484375 -7.25 3.0625 C-8.24 4.5475 -8.24 4.5475 -9.25 6.0625 C-11.4140625 6.57421875 -11.4140625 6.57421875 -13.875 6.75 C-15.10089844 6.84861328 -15.10089844 6.84861328 -16.3515625 6.94921875 C-16.97804687 6.98660156 -17.60453125 7.02398437 -18.25 7.0625 C-18.58 6.4025 -18.91 5.7425 -19.25 5.0625 C-14.5 3.0625 -14.5 3.0625 -12.25 3.0625 C-11.92 2.4025 -11.59 1.7425 -11.25 1.0625 C-7.62183731 -0.337689 -3.83524417 -0.03551152 0 0 Z " fill="#34A755" transform="translate(169.25,168.9375)"/>
<path d="M0 0 C7.13025145 0.26655146 13.93346449 0.90861559 20 5 C20.33 5.99 20.66 6.98 21 8 C16.71 7.34 12.42 6.68 8 6 C8 5.34 8 4.68 8 4 C3.545 3.01 3.545 3.01 -1 2 C-0.67 1.34 -0.34 0.68 0 0 Z " fill="#35A752" transform="translate(181,170)"/>
<path d="M0 0 C7.35342179 -0.20177072 13.94887561 -0.21211746 21 2 C17.45571699 3.13244164 14.32129626 2.96897936 10.625 2.8125 C0.12979188 2.72503993 -9.35462209 6.14184884 -19 10 C-18.75 8.10546875 -18.75 8.10546875 -18 6 C-12.65847081 2.91192844 -6.02496796 2.47817206 0 2 C0 1.34 0 0.68 0 0 Z " fill="#D2F0E8" transform="translate(163,165)"/>
<path d="M0 0 C2.7460937 2.23298277 3.90319184 3.37480666 4.45410156 6.93261719 C4.4331543 8.04282227 4.41220703 9.15302734 4.390625 10.296875 C4.37773437 11.50214844 4.36484375 12.70742187 4.3515625 13.94921875 C4.31804687 15.20347656 4.28453125 16.45773438 4.25 17.75 C4.23195312 19.01972656 4.21390625 20.28945312 4.1953125 21.59765625 C4.14817812 24.73209258 4.07643558 27.8661413 4 31 C12.58 31 21.16 31 30 31 C30 31.33 30 31.66 30 32 C20.76 32.33 11.52 32.66 2 33 C2.125 20.4375 2.125 20.4375 2.18017578 16.51733398 C2.20853938 10.62182311 2.06915432 5.54761455 0 0 Z " fill="#5E8FE3" transform="translate(186,67)"/>
<path d="M0 0 C0.66 0.33 1.32 0.66 2 1 C1.67 9.91 1.34 18.82 1 28 C-11.75 28.375 -11.75 28.375 -15.75292969 28.47802734 C-16.79868164 28.5136377 -17.84443359 28.54924805 -18.921875 28.5859375 C-20.52434082 28.63306885 -20.52434082 28.63306885 -22.15917969 28.68115234 C-26.12753088 29.12655168 -28.19657394 30.19657394 -31 33 C-30.67 31.35 -30.34 29.7 -30 28 C-26.68973391 27.02700338 -23.58290092 26.80653218 -20.140625 26.68359375 C-18.63290527 26.62643188 -18.63290527 26.62643188 -17.09472656 26.56811523 C-15.8259668 26.52501221 -14.55720703 26.48190918 -13.25 26.4375 C-9.2075 26.293125 -5.165 26.14875 -1 26 C-0.67 17.42 -0.34 8.84 0 0 Z " fill="#D1EAFE" transform="translate(157,70)"/>
<path d="M0 0 C3 2.0625 3 2.0625 5 5 C5.1506132 9.29247606 4.66257079 11.22050496 1.875 14.5 C-1.87393358 16.45596535 -3.974721 16.08372896 -8 15 C-8.33 14.34 -8.66 13.68 -9 13 C-7.906875 13.020625 -6.81375 13.04125 -5.6875 13.0625 C-2.05615809 13.18544452 -2.05615809 13.18544452 1 12 C1.72256829 7.51866426 1.72256829 7.51866426 2 3 C-4.08408472 2.80185739 -4.08408472 2.80185739 -10 4 C-9.67 3.01 -9.34 2.02 -9 1 C-5.86128812 -0.56935594 -3.46144178 -0.35201103 0 0 Z " fill="#5C8CDE" transform="translate(81,219)"/>
<path d="M0 0 C0.33 0 0.66 0 1 0 C1.33 7.59 1.66 15.18 2 23 C3.81886719 23.03738281 5.63773438 23.07476562 7.51171875 23.11328125 C9.9036664 23.17894256 12.29559256 23.24538984 14.6875 23.3125 C15.88568359 23.33505859 17.08386719 23.35761719 18.31835938 23.38085938 C20.05375977 23.4340332 20.05375977 23.4340332 21.82421875 23.48828125 C22.88729248 23.51446533 23.95036621 23.54064941 25.0456543 23.56762695 C28.33520247 24.0490574 30.29014981 25.11822044 33 27 C32.34 27.99 31.68 28.98 31 30 C30.34 29.01 29.68 28.02 29 27 C25.82490018 25.94163339 23.35717617 25.79756211 20.01953125 25.68359375 C18.85615234 25.64169922 17.69277344 25.59980469 16.49414062 25.55664062 C15.27919922 25.51732422 14.06425781 25.47800781 12.8125 25.4375 C11.58595703 25.39431641 10.35941406 25.35113281 9.09570312 25.30664062 C6.06393808 25.20046986 3.031984 25.09972236 0 25 C0 16.75 0 8.5 0 0 Z " fill="#D3E9FE" transform="translate(190,73)"/>
<path d="M0 0 C0.99 0.33 1.98 0.66 3 1 C4.69867188 1.14777936 6.40177489 1.24747066 8.10546875 1.31640625 C9.57983398 1.37924805 9.57983398 1.37924805 11.08398438 1.44335938 C12.62022461 1.50233398 12.62022461 1.50233398 14.1875 1.5625 C15.22326172 1.60568359 16.25902344 1.64886719 17.32617188 1.69335938 C19.8839819 1.79944366 22.44188845 1.90150146 25 2 C25 2.33 25 2.66 25 3 C20.38 3.33 15.76 3.66 11 4 C11.66 4.66 12.32 5.32 13 6 C9.37 6.33 5.74 6.66 2 7 C2 7.66 2 8.32 2 9 C1.34 9 0.68 9 0 9 C0 6.03 0 3.06 0 0 Z " fill="#558DE8" transform="translate(275,222)"/>
<path d="M0 0 C0.33 0 0.66 0 1 0 C1.02505615 0.77190674 1.0501123 1.54381348 1.07592773 2.33911133 C1.19184007 5.83041181 1.31458824 9.32143922 1.4375 12.8125 C1.47681641 14.02744141 1.51613281 15.24238281 1.55664062 16.49414062 C1.59853516 17.65751953 1.64042969 18.82089844 1.68359375 20.01953125 C1.72025146 21.09307861 1.75690918 22.16662598 1.79467773 23.27270508 C1.89541847 26.09311553 1.89541847 26.09311553 3 29 C3.99 29 4.98 29 6 29 C6 29.66 6 30.32 6 31 C13.26 31 20.52 31 28 31 C28 31.33 28 31.66 28 32 C24.08372337 32.14522934 20.16813847 32.23404757 16.25 32.3125 C15.13882813 32.35439453 14.02765625 32.39628906 12.8828125 32.43945312 C11.27792969 32.46362305 11.27792969 32.46362305 9.640625 32.48828125 C8.16384277 32.52755737 8.16384277 32.52755737 6.65722656 32.56762695 C4 32 4 32 1.671875 29.86914062 C-0.30768458 26.47197587 -0.46471653 24.51379693 -0.390625 20.60546875 C-0.37773437 19.40341797 -0.36484375 18.20136719 -0.3515625 16.96289062 C-0.31804687 15.71701172 -0.28453125 14.47113281 -0.25 13.1875 C-0.23195312 11.92228516 -0.21390625 10.65707031 -0.1953125 9.35351562 C-0.14823916 6.23490665 -0.08249094 3.11784027 0 0 Z " fill="#4F86DE" transform="translate(158,130)"/>
<path d="M0 0 C0.66 0.33 1.32 0.66 2 1 C3.21249223 6.38346552 2.85346532 11.06777891 2.0625 16.4375 C1.96259766 17.16904297 1.86269531 17.90058594 1.75976562 18.65429688 C1.51502767 20.43738769 1.25872147 22.21888442 1 24 C0.67 24 0.34 24 0 24 C-1.38529821 18.54538831 -2.2396943 13.63281599 -2 8 C-1.34 8 -0.68 8 0 8 C0 5.36 0 2.72 0 0 Z " fill="#35A752" transform="translate(117,216)"/>
<path d="M0 0 C3 0 3 0 4.6875 1.1875 C6.40364695 3.55741722 6.23187108 5.14025666 6 8 C3.1875 8.625 3.1875 8.625 0 9 C-0.99 8.34 -1.98 7.68 -3 7 C-3.1875 4.375 -3.1875 4.375 -3 2 C-2.01 2 -1.02 2 0 2 C0 1.34 0 0.68 0 0 Z " fill="#33A852" transform="translate(148,206)"/>
<path d="M0 0 C0.99 0 1.98 0 3 0 C3 2.97 3 5.94 3 9 C3.66 9 4.32 9 5 9 C5.125 15.625 5.125 15.625 4 19 C3.34 19 2.68 19 2 19 C0.82706111 12.6221448 -0.29530838 6.49678438 0 0 Z " fill="#34A751" transform="translate(226,205)"/>
<path d="M0 0 C0.67546875 0.20496094 1.3509375 0.40992188 2.046875 0.62109375 C2.93890625 0.89050781 3.8309375 1.15992188 4.75 1.4375 C5.63171875 1.70433594 6.5134375 1.97117187 7.421875 2.24609375 C8.27265625 2.49488281 9.1234375 2.74367188 10 3 C10.90878906 3.26780273 10.90878906 3.26780273 11.8359375 3.54101562 C14.34627322 4.07344243 16.63712957 4.11257483 19.203125 4.09765625 C20.1828125 4.09443359 21.1625 4.09121094 22.171875 4.08789062 C23.18765625 4.07951172 24.2034375 4.07113281 25.25 4.0625 C26.28125 4.05798828 27.3125 4.05347656 28.375 4.04882812 C30.91672573 4.03706088 33.45833319 4.02062011 36 4 C36 4.66 36 5.32 36 6 C32.37501758 6.02946035 28.75006668 6.04695131 25.125 6.0625 C24.11179688 6.07087891 23.09859375 6.07925781 22.0546875 6.08789062 C8.37622937 6.13173184 8.37622937 6.13173184 3 5 C1 3 1 3 0 0 Z " fill="#CAEDE2" transform="translate(150,281)"/>
<path d="M0 0 C0.33 0.66 0.66 1.32 1 2 C1.99 2.33 2.98 2.66 4 3 C3.67 4.98 3.34 6.96 3 9 C-0.28696233 9.79953138 -1.71023192 10.09658936 -5 9 C-5 7.68 -5 6.36 -5 5 C-3.35 5 -1.7 5 0 5 C-0.66 3.68 -1.32 2.36 -2 1 C-1.34 0.67 -0.68 0.34 0 0 Z " fill="#33A851" transform="translate(198,205)"/>
<path d="M0 0 C0.66 0.33 1.32 0.66 2 1 C-0.75 6.875 -0.75 6.875 -3 8 C-3.99 8.7734375 -3.99 8.7734375 -5 9.5625 C-7 11 -7 11 -9 11 C-9.33 9.68 -9.66 8.36 -10 7 C-3.23076923 1.15384615 -3.23076923 1.15384615 0 0 Z " fill="#3CA65C" transform="translate(214,263)"/>
<path d="M0 0 C0.93423645 3.01031744 1.04449911 3.86650268 0 7 C-1.81181405 7.19401633 -3.62448532 7.38004375 -5.4375 7.5625 C-6.95150391 7.71912109 -6.95150391 7.71912109 -8.49609375 7.87890625 C-9.73552734 7.93884766 -9.73552734 7.93884766 -11 8 C-11.33 7.67 -11.66 7.34 -12 7 C-14.18292774 6.76518307 -16.37203174 6.58636677 -18.5625 6.4375 C-19.76003906 6.35371094 -20.95757812 6.26992187 -22.19140625 6.18359375 C-23.11824219 6.12300781 -24.04507813 6.06242188 -25 6 C-25 5.67 -25 5.34 -25 5 C-24.34926514 4.9906543 -23.69853027 4.98130859 -23.02807617 4.97167969 C-20.08044494 4.91800507 -17.13440607 4.8343545 -14.1875 4.75 C-13.16333984 4.73582031 -12.13917969 4.72164062 -11.08398438 4.70703125 C-10.10107422 4.67480469 -9.11816406 4.64257812 -8.10546875 4.609375 C-7.19949951 4.58842773 -6.29353027 4.56748047 -5.36010742 4.54589844 C-2.82525007 4.19860416 -2.82525007 4.19860416 -1.1809082 1.96191406 C-0.7912085 1.31448242 -0.40150879 0.66705078 0 0 Z " fill="#BDD7FA" transform="translate(189,157)"/>
<path d="M0 0 C2.6486859 3.19668988 4.93992341 6.39486597 7 10 C6.01 10.495 6.01 10.495 5 11 C4.34 10.67 3.68 10.34 3 10 C2.34 11.32 1.68 12.64 1 14 C-1.0625 11.1875 -1.0625 11.1875 -3 8 C-2.67 7.01 -2.34 6.02 -2 5 C-1.01 6.485 -1.01 6.485 0 8 C0.66 8 1.32 8 2 8 C2.33 7.34 2.66 6.68 3 6 C2.01 5.67 1.02 5.34 0 5 C-0.75 3 -0.75 3 -1 1 C-0.67 0.67 -0.34 0.34 0 0 Z " fill="#4EA86C" transform="translate(126,250)"/>
<path d="M0 0 C2.01616137 3.02424205 2.25469543 3.62707101 2.265625 7.01953125 C2.26820313 7.79490234 2.27078125 8.57027344 2.2734375 9.36914062 C2.26570312 10.17544922 2.25796875 10.98175781 2.25 11.8125 C2.25773438 12.60720703 2.26546875 13.40191406 2.2734375 14.22070312 C2.25804462 18.87320056 1.77527784 22.62520817 0 27 C-0.66 27 -1.32 27 -2 27 C-1.84660156 25.88625 -1.69320312 24.7725 -1.53515625 23.625 C-0.92693771 18.75925164 -0.66688586 13.89607197 -0.4375 9 C-0.39431641 8.12988281 -0.35113281 7.25976562 -0.30664062 6.36328125 C-0.20175782 4.24231781 -0.10049925 2.12117567 0 0 Z " fill="#C5ECDE" transform="translate(233,217)"/>
<path d="M0 0 C-4.82569647 4.82569647 -11.5917907 5.22195446 -18.125 5.3125 C-23.12017497 5.20978536 -27.33676972 4.77646868 -32 3 C-32 2.67 -32 2.34 -32 2 C-25.84765625 1.90234375 -25.84765625 1.90234375 -24 2 C-23.67 2.33 -23.34 2.66 -23 3 C-14.6013906 3.75558424 -7.71402827 -0.7012753 0 0 Z " fill="#CAEEE0" transform="translate(192,251)"/>
<path d="M0 0 C1.9296875 1.375 1.9296875 1.375 2.609375 3.6875 C2.67382812 4.574375 2.73828125 5.46125 2.8046875 6.375 C2.88460937 7.261875 2.96453125 8.14875 3.046875 9.0625 C2.9296875 11.375 2.9296875 11.375 0.9296875 13.375 C-1.453125 13.7890625 -1.453125 13.7890625 -4.1953125 14 C-5.10539063 14.07476562 -6.01546875 14.14953125 -6.953125 14.2265625 C-8.00113281 14.30003906 -8.00113281 14.30003906 -9.0703125 14.375 C-9.0703125 14.045 -9.0703125 13.715 -9.0703125 13.375 C-7.9359375 13.065625 -6.8015625 12.75625 -5.6328125 12.4375 C-2.28256151 11.74575469 -2.28256151 11.74575469 -1.0703125 10.375 C-0.56420343 5.5795846 -0.56420343 5.5795846 -2.5703125 1.4375 C-3.0653125 1.086875 -3.5603125 0.73625 -4.0703125 0.375 C-2.0703125 -0.625 -2.0703125 -0.625 0 0 Z " fill="#D6EDE7" transform="translate(156.0703125,203.625)"/>
<path d="M0 0 C4 3 8 6 12 9 C9.23723823 8.47731534 6.6739124 7.89130413 4 7 C4.33 7.99 4.66 8.98 5 10 C2 10 2 10 -0.6875 7.5 C-1.450625 6.675 -2.21375 5.85 -3 5 C-1.35 5 0.3 5 2 5 C1.34 3.35 0.68 1.7 0 0 Z " fill="#47A566" transform="translate(137,265)"/>
<path d="M0 0 C1.32 0.66 2.64 1.32 4 2 C3 5 3 5 0.75 6.25 C-2.35010074 7.09548202 -3.93970907 6.86315898 -7 6 C-8.33261896 5.66382208 -9.6658412 5.33001391 -11 5 C-9.93458984 4.58427734 -9.93458984 4.58427734 -8.84765625 4.16015625 C-7.46900391 3.61681641 -7.46900391 3.61681641 -6.0625 3.0625 C-5.14597656 2.70285156 -4.22945312 2.34320313 -3.28515625 1.97265625 C-1.07581467 1.2003782 -1.07581467 1.2003782 0 0 Z " fill="#4DA66B" transform="translate(195,249)"/>
<path d="M0 0 C1.48117801 0.28127421 2.95993249 0.57533732 4.4375 0.875 C5.67306641 1.11863281 5.67306641 1.11863281 6.93359375 1.3671875 C7.61550781 1.57601563 8.29742187 1.78484375 9 2 C9.33 2.66 9.66 3.32 10 4 C10.99 4.66 11.98 5.32 13 6 C8.02398374 7.71050559 4.57383705 6.00885647 0 4 C0 2.68 0 1.36 0 0 Z " fill="#35A752" transform="translate(141,272)"/>
<path d="M0 0 C3.41051251 6.52988371 3.6237456 13.73706393 3 21 C1.98828125 23.83984375 1.98828125 23.83984375 1 26 C0.34 26 -0.32 26 -1 26 C-0.83628906 25.22398437 -0.67257813 24.44796875 -0.50390625 23.6484375 C0.144912 18.9507922 0.10640387 14.35986339 0.0625 9.625 C0.05798828 8.69816406 0.05347656 7.77132812 0.04882812 6.81640625 C0.03711574 4.54420291 0.02071372 2.27213612 0 0 Z " fill="#4BA266" transform="translate(226,214)"/>
<path d="M0 0 C2.31 0.66 4.62 1.32 7 2 C7 2.66 7 3.32 7 4 C8.65 4.33 10.3 4.66 12 5 C12 6.65 12 8.3 12 10 C10.51719804 9.21516341 9.0388502 8.42190666 7.5625 7.625 C6.73878906 7.18414062 5.91507813 6.74328125 5.06640625 6.2890625 C3 5 3 5 2 3 C1.01 2.34 0.02 1.68 -1 1 C-0.67 0.67 -0.34 0.34 0 0 Z " fill="#35A650" transform="translate(202,178)"/>
<path d="M0 0 C4.56958375 1.97322935 7.13463296 3.92236229 10 8 C7.625 8.125 7.625 8.125 5 8 C4.34 7.34 3.68 6.68 3 6 C2.01 6 1.02 6 0 6 C0 4 0 2 0 0 Z " fill="#D6ECED" transform="translate(203,183)"/>
<path d="M0 0 C3.95901486 5.93852229 4.24710558 12.08104381 4 19 C3.01 19 2.02 19 1 19 C1.33 15.7 1.66 12.4 2 9 C1.34 9 0.68 9 0 9 C0 6.03 0 3.06 0 0 Z " fill="#45A468" transform="translate(229,205)"/>
<path d="M0 0 C0 3 0 3 -0.49389648 4.83496094 C-1.11459452 7.49021908 -1.11215905 9.91409835 -1.09765625 12.640625 C-1.09443359 13.71054688 -1.09121094 14.78046875 -1.08789062 15.8828125 C-1.07951172 16.99398437 -1.07113281 18.10515625 -1.0625 19.25 C-1.05798828 20.37664062 -1.05347656 21.50328125 -1.04882812 22.6640625 C-1.03705397 25.44276217 -1.0206084 28.22135409 -1 31 C-1.66 31 -2.32 31 -3 31 C-3.08706286 26.58345745 -3.14041378 22.16713543 -3.1875 17.75 C-3.21263672 16.49574219 -3.23777344 15.24148437 -3.26367188 13.94921875 C-3.27333984 12.74394531 -3.28300781 11.53867188 -3.29296875 10.296875 C-3.3086792 9.18666992 -3.32438965 8.07646484 -3.34057617 6.93261719 C-2.9652016 3.70035957 -2.17758089 2.36092968 0 0 Z " fill="#5489DD" transform="translate(161,67)"/>
<path d="M0 0 C0.33 0 0.66 0 1 0 C1.05811773 3.74993479 1.09363593 7.49975352 1.125 11.25 C1.14175781 12.31347656 1.15851563 13.37695312 1.17578125 14.47265625 C1.18222656 15.49746094 1.18867188 16.52226563 1.1953125 17.578125 C1.20578613 18.52075195 1.21625977 19.46337891 1.22705078 20.43457031 C0.99119213 23.09951941 0.35661659 24.71863092 -1 27 C-1.99 27 -2.98 27 -4 27 C-3 25 -2 23 -1 21 C-0.84824451 19.40737934 -0.75099675 17.80935144 -0.68359375 16.2109375 C-0.64169922 15.26992187 -0.59980469 14.32890625 -0.55664062 13.359375 C-0.49766602 11.88210937 -0.49766602 11.88210937 -0.4375 10.375 C-0.39431641 9.38242188 -0.35113281 8.38984375 -0.30664062 7.3671875 C-0.20038931 4.91160162 -0.09835036 2.45591297 0 0 Z " fill="#C8E0FE" transform="translate(222,104)"/>
<path d="M0 0 C0 0.99 0 1.98 0 3 C-1.11375 3.309375 -2.2275 3.61875 -3.375 3.9375 C-6.7945155 4.82326483 -6.7945155 4.82326483 -9 6 C-9 5.34 -9 4.68 -9 4 C-9.66 3.34 -10.32 2.68 -11 2 C-6.89657963 -0.38570952 -4.61380251 -1.49270081 0 0 Z " fill="#39A557" transform="translate(148,178)"/>
<path d="M0 0 C0.495 0.495 0.99 0.99 1.5 1.5 C5.19724878 3.71834927 7.71162487 3.34034723 12 3 C12.99 2.34 13.98 1.68 15 1 C14.625 2.9375 14.625 2.9375 14 5 C11.42271711 6.28864145 9.91128844 5.93455998 7.0625 5.625 C5.74958984 5.48964844 5.74958984 5.48964844 4.41015625 5.3515625 C2 5 2 5 -1 4 C-0.67 2.68 -0.34 1.36 0 0 Z " fill="#C7E1FC" transform="translate(230,182)"/>
<path d="M0 0 C2.3125 0.1875 2.3125 0.1875 5 1 C6.8125 3.5625 6.8125 3.5625 8 6 C5.39417629 6.93065133 4.35801776 7.14917407 1.75 6.0625 C1.1725 5.711875 0.595 5.36125 0 5 C0 3.35 0 1.7 0 0 Z " fill="#34A656" transform="translate(132,264)"/>
<path d="M0 0 C3.465 1.485 3.465 1.485 7 3 C7 4.32 7 5.64 7 7 C4.03 6.01 1.06 5.02 -2 4 C-1.34 2.68 -0.68 1.36 0 0 Z " fill="#44A363" transform="translate(151,249)"/>
<path d="M0 0 C2.06309376 0.11478413 4.12548354 0.24226198 6.1875 0.375 C7.33605469 0.44460938 8.48460937 0.51421875 9.66796875 0.5859375 C12.79959117 0.97509574 15.15285809 1.6809851 18 3 C18 3.33 18 3.66 18 4 C11.42684522 4.36517527 6.20514474 3.13619737 0 1 C0 0.67 0 0.34 0 0 Z " fill="#56AA76" transform="translate(154,282)"/>
<path d="M0 0 C1.98 0.495 1.98 0.495 4 1 C4.6875 2.8125 4.6875 2.8125 5 5 C3.5625 6.75 3.5625 6.75 2 8 C1.67 7.01 1.34 6.02 1 5 C0.34 5 -0.32 5 -1 5 C-0.67 3.35 -0.34 1.7 0 0 Z " fill="#3AA658" transform="translate(222,196)"/>
<path d="M0 0 C4.72867022 0.46359512 8.18142796 1.0799155 12 4 C12.33 4.99 12.66 5.98 13 7 C13.66 7 14.32 7 15 7 C14.67 7.66 14.34 8.32 14 9 C13.32453125 8.59007812 12.6490625 8.18015625 11.953125 7.7578125 C11.06109375 7.21898437 10.1690625 6.68015625 9.25 6.125 C8.36828125 5.59132812 7.4865625 5.05765625 6.578125 4.5078125 C4.41725907 3.24403334 2.25429605 2.08501165 0 1 C0 0.67 0 0.34 0 0 Z " fill="#4EA96E" transform="translate(192,176)"/>
<path d="M0 0 C0.99 0.33 1.98 0.66 3 1 C2.67 1.33 2.34 1.66 2 2 C2.33 2.99 2.66 3.98 3 5 C2.01 5.33 1.02 5.66 0 6 C-0.66 5.67 -1.32 5.34 -2 5 C-2.33 6.32 -2.66 7.64 -3 9 C-3.1875 5.625 -3.1875 5.625 -3 2 C-2.01 1.34 -1.02 0.68 0 0 Z " fill="#42A662" transform="translate(195,205)"/>
<path d="M0 0 C0.33 0 0.66 0 1 0 C0.41018767 6.25201072 0.41018767 6.25201072 -1.0625 8.9375 C-4.27572893 10.69959328 -7.3842174 10.17782537 -11 10 C-11 9.67 -11 9.34 -11 9 C-9.02 9 -7.04 9 -5 9 C-5 8.34 -5 7.68 -5 7 C-4.34 7 -3.68 7 -3 7 C-3 6.34 -3 5.68 -3 5 C-2.34 4.67 -1.68 4.34 -1 4 C-0.34786708 1.97536745 -0.34786708 1.97536745 0 0 Z " fill="#5B8CE2" transform="translate(117,176)"/>
<path d="M0 0 C0 0.99 0 1.98 0 3 C-3.3 3 -6.6 3 -10 3 C-9.67 2.01 -9.34 1.02 -9 0 C-5.93109813 -1.53445094 -3.29905734 -0.54984289 0 0 Z " fill="#CDE5FD" transform="translate(275,217)"/>
<path d="M0 0 C0.33 0.99 0.66 1.98 1 3 C3.01508358 3.73323796 3.01508358 3.73323796 5 4 C5.625 5.875 5.625 5.875 6 8 C5.34 8.66 4.68 9.32 4 10 C0.06153846 5.69230769 0.06153846 5.69230769 -0.25 2.1875 C-0.1675 1.465625 -0.085 0.74375 0 0 Z " fill="#33A84F" transform="translate(215,186)"/>
<path d="M0 0 C2 1 2 1 2 1 Z M-6 1 C-4.02 1 -2.04 1 0 1 C-0.33 2.32 -0.66 3.64 -1 5 C-2.65 5 -4.3 5 -6 5 C-6.33 4.34 -6.66 3.68 -7 3 C-6.67 2.34 -6.34 1.68 -6 1 Z " fill="#35A753" transform="translate(199,276)"/>
<path d="M0 0 C-1.98 0.99 -1.98 0.99 -4 2 C-4 2.66 -4 3.32 -4 4 C-4.99 4 -5.98 4 -7 4 C-6.67 5.65 -6.34 7.3 -6 9 C-6.99 9.495 -6.99 9.495 -8 10 C-8.36272727 3.59181818 -8.36272727 3.59181818 -6.8125 1.0625 C-4.43958382 -0.32851983 -2.70313576 -0.21917317 0 0 Z " fill="#55A870" transform="translate(152,204)"/>
<path d="M0 0 C0.33 0.66 0.66 1.32 1 2 C1.99 2.33 2.98 2.66 4 3 C4.33 4.98 4.66 6.96 5 9 C0.125 4.375 0.125 4.375 -1 1 C-0.67 0.67 -0.34 0.34 0 0 Z " fill="#D0EEE5" transform="translate(128,250)"/>
<path d="M0 0 C1.32 0.66 2.64 1.32 4 2 C3.67 5.3 3.34 8.6 3 12 C2.34 11.67 1.68 11.34 1 11 C1.0928125 9.3603125 1.0928125 9.3603125 1.1875 7.6875 C1.35597914 4.07873917 1.35597914 4.07873917 -0.5 2.0625 C-0.995 1.711875 -1.49 1.36125 -2 1 C-1.34 0.67 -0.68 0.34 0 0 Z " fill="#CAE8DE" transform="translate(154,203)"/>
<path d="M0 0 C0.99 0.33 1.98 0.66 3 1 C4.32 1 5.64 1 7 1 C5.6875 3 5.6875 3 4 5 C3.01 5 2.02 5 1 5 C0.67 3.35 0.34 1.7 0 0 Z " fill="#3AA255" transform="translate(132,185)"/>
<path d="M0 0 C3.465 1.98 3.465 1.98 7 4 C4 6 4 6 1 6 C0.67 4.02 0.34 2.04 0 0 Z " fill="#D3ECE5" transform="translate(136,273)"/>
<path d="M0 0 C0.66 0.33 1.32 0.66 2 1 C1.67 3.31 1.34 5.62 1 8 C0.01 8 -0.98 8 -2 8 C-1.47731534 5.23723823 -0.89130413 2.6739124 0 0 Z " fill="#31A952" transform="translate(227,241)"/>
<path d="M0 0 C2.04119788 1.61594832 4.04072937 3.2856382 6 5 C6 5.66 6 6.32 6 7 C3.0625 6.1875 3.0625 6.1875 0 5 C-0.33 4.01 -0.66 3.02 -1 2 C-0.67 1.34 -0.34 0.68 0 0 Z " fill="#4DAB6A" transform="translate(214,183)"/>
<path d="M0 0 C1.33333333 0.66666667 2.66666667 1.33333333 4 2 C5.0828125 2.433125 5.0828125 2.433125 6.1875 2.875 C8 4 8 4 8.75 6.125 C8.87375 7.053125 8.87375 7.053125 9 8 C4.7257442 6.4169423 2.73468206 3.49431596 0 0 Z " fill="#3EA062" transform="translate(207,184)"/>
<path d="M0 0 C3.3 0 6.6 0 10 0 C9.67 0.99 9.34 1.98 9 3 C5.26512223 2.5020163 3.18762365 2.12508244 0 0 Z " fill="#C5E7DE" transform="translate(153,275)"/>
<path d="M0 0 C1.73543126 2.60314689 2.61121812 3.98694043 3 7 C2.34 7.66 1.68 8.32 1 9 C-0.61949011 6.42786866 -1.04408751 5.32330841 -0.625 2.25 C-0.41875 1.5075 -0.2125 0.765 0 0 Z " fill="#31A950" transform="translate(120,241)"/>
<path d="M0 0 C2.29633824 3.44450737 2.54016485 5.93812283 3 10 C2.01 9.67 1.02 9.34 0 9 C0 6.03 0 3.06 0 0 Z " fill="#54AA72" transform="translate(229,205)"/>
<path d="M0 0 C2.475 0.99 2.475 0.99 5 2 C5 4.31 5 6.62 5 9 C2.67527795 6.14693203 1.2491742 3.45925163 0 0 Z " fill="#D7EDEC" transform="translate(201,202)"/>
<path d="M0 0 C0.33 0 0.66 0 1 0 C1 1.98 1 3.96 1 6 C0.01 6 -0.98 6 -2 6 C-2 6.99 -2 7.98 -2 9 C-2.66 9 -3.32 9 -4 9 C-2.94124926 5.59687262 -1.99097846 2.98646769 0 0 Z " fill="#4FA56B" transform="translate(125,192)"/>
<path d="M0 0 C1.32 0.99 2.64 1.98 4 3 C1.525 4.485 1.525 4.485 -1 6 C-1.33 4.35 -1.66 2.7 -2 1 C-1.34 0.67 -0.68 0.34 0 0 Z " fill="#D6EBEC" transform="translate(134,177)"/>
<path d="M0 0 C2.6875 0.3125 2.6875 0.3125 5 1 C3.8125 2.5625 3.8125 2.5625 2 4 C-0.6875 3.6875 -0.6875 3.6875 -3 3 C-1.8125 1.4375 -1.8125 1.4375 0 0 Z " fill="#32A751" transform="translate(153,172)"/>
<path d="M0 0 C2.4375 0.8125 2.4375 0.8125 5 2 C5.33 2.99 5.66 3.98 6 5 C5.01 5.33 4.02 5.66 3 6 C1.5 4.6875 1.5 4.6875 0 3 C0 2.01 0 1.02 0 0 Z " fill="#D9E6FB" transform="translate(129,129)"/>
<path d="M0 0 C0.66 0.33 1.32 0.66 2 1 C1.67 1.99 1.34 2.98 1 4 C-0.64551962 4.71727778 -2.31422289 5.38325228 -4 6 C-4.66 6.66 -5.32 7.32 -6 8 C-6 5 -6 5 -4.6875 3.61328125 C-3.125 2.40885417 -1.5625 1.20442708 0 0 Z " fill="#E0E3EE" transform="translate(75,51)"/>
<path d="M0 0 C0.66 0.33 1.32 0.66 2 1 C1.01 2.98 0.02 4.96 -1 7 C-1.66 6.67 -2.32 6.34 -3 6 C-3 4.68 -3 3.36 -3 2 C-2.01 1.34 -1.02 0.68 0 0 Z " fill="#37A551" transform="translate(214,263)"/>
<path d="M0 0 C1.98 0 3.96 0 6 0 C4.35 1.65 2.7 3.3 1 5 C0.34 4.67 -0.32 4.34 -1 4 C-0.67 2.68 -0.34 1.36 0 0 Z " fill="#34A653" transform="translate(217,258)"/>
<path d="M0 0 C1.32 0.33 2.64 0.66 4 1 C3.25 6.75 3.25 6.75 1 9 C0.67 6.03 0.34 3.06 0 0 Z " fill="#D2EEE9" transform="translate(220,241)"/>
<path d="M0 0 C3.3 0 6.6 0 10 0 C10 0.66 10 1.32 10 2 C4.58461538 3.23076923 4.58461538 3.23076923 1.625 2.0625 C1.08875 1.711875 0.5525 1.36125 0 1 C0 0.67 0 0.34 0 0 Z " fill="#6393E3" transform="translate(72,232)"/>
<path d="M0 0 C2.95929119 2.75520215 5.03681826 5.46627288 7 9 C3.17475764 7.549046 1.80909034 5.61818068 0 2 C0 1.34 0 0.68 0 0 Z " fill="#C2E5D9" transform="translate(213,191)"/>
<path d="M0 0 C0.165 0.639375 0.33 1.27875 0.5 1.9375 C1.781786 4.16119241 1.781786 4.16119241 3.9140625 4.48828125 C5.93575155 4.7275978 7.96841939 4.86893028 10 5 C10 5.33 10 5.66 10 6 C4.62694301 6.35233161 4.62694301 6.35233161 2 6 C0 4 0 4 -1 2 C-0.67 1.34 -0.34 0.68 0 0 Z " fill="#BBD7FB" transform="translate(102,181)"/>
<path d="M0 0 C0 0.66 0 1.32 0 2 C-1.28745036 2.38922918 -2.58019597 2.76098036 -3.875 3.125 C-4.59429687 3.33382812 -5.31359375 3.54265625 -6.0546875 3.7578125 C-6.69664062 3.83773437 -7.33859375 3.91765625 -8 4 C-8.66 3.34 -9.32 2.68 -10 2 C-6.38026598 0.68373308 -3.90432869 0 0 0 Z " fill="#C9EDE2" transform="translate(164,175)"/>
<path d="M0 0 C1.65 1.65 3.3 3.3 5 5 C3.35 5 1.7 5 0 5 C-0.33 4.01 -0.66 3.02 -1 2 C-0.67 1.34 -0.34 0.68 0 0 Z " fill="#C8E7E0" transform="translate(208,186)"/>
<path d="M0 0 C0.99 0 1.98 0 3 0 C1.125 3.875 1.125 3.875 0 5 C-2.33297433 5.04092937 -4.66705225 5.04241723 -7 5 C-7 4.67 -7 4.34 -7 4 C-5.02 3.67 -3.04 3.34 -1 3 C-0.67 2.01 -0.34 1.02 0 0 Z " fill="#4E85D9" transform="translate(242,181)"/>
</svg>
